<svg xmlns="http://www.w3.org/2000/svg" viewBox="0 0 133.01 20.17"><defs><style>.cls-1{fill:#ffdd09;}.cls-2{fill:#1f71b8;}.cls-3{fill:#1e1e1c;}.cls-4{fill:#fff;}</style></defs><title>logo-autoonline</title><g id="Laag_2" data-name="Laag 2"><g id="Laag_1-2" data-name="Laag 1"><path class="cls-1" d="M130.59.38h-52a2.14,2.14,0,0,0-.45,0c3.46,1.23,6,5.06,6,9.61s-2.42,8.2-5.76,9.51l.22,0h52a2.7,2.7,0,0,0,2.42-2.9V3.28A2.7,2.7,0,0,0,130.59.38Z"/><rect class="cls-2" y="3.27" width="18.96" height="13.78" rx="3.11"/><path class="cls-1" d="M61.16,10c0-4.55,2.53-8.38,6-9.61a2.14,2.14,0,0,0-.45,0h-52a2.58,2.58,0,0,0-2.37,2.31h4.21A3.12,3.12,0,0,1,19.63,5.8v8.68a3.12,3.12,0,0,1-3.11,3.11H12.39a2.51,2.51,0,0,0,2.29,2h52l.22,0C63.58,18.24,61.16,14.48,61.16,10Z"/><path class="cls-3" d="M72.08.08h1.35l.16,0a10.83,10.83,0,0,1,1.94.35A9.85,9.85,0,0,1,78.7,2a9.75,9.75,0,0,1,1.79,1.66,10,10,0,0,1,1.34,2.06,9.8,9.8,0,0,1,.87,2.8c0,.29.08.58.13.87v1.34l0,.21A10.26,10.26,0,0,1,82,14a9.94,9.94,0,0,1-1.53,2.46A10.08,10.08,0,0,1,78,18.58,9.82,9.82,0,0,1,74.3,20l-.87.12H72.08l-.21,0a10.51,10.51,0,0,1-3.12-.78,10.21,10.21,0,0,1-2.46-1.52,10,10,0,0,1-1.92-2.13,9.68,9.68,0,0,1-1.55-4c0-.3-.09-.59-.13-.88V9.41l0-.12a10.67,10.67,0,0,1,.63-2.78A9.9,9.9,0,0,1,65,3.66a10.05,10.05,0,0,1,2.15-1.91,9.76,9.76,0,0,1,4-1.54Zm0,6.69,0,0H68.51c-.1,0-.11.06-.12.13-.06.35-.14.7-.18,1s-.1,1-.15,1.47h4Zm0,4h-4l0,0a16.48,16.48,0,0,0,.31,2.43c0,.14.07.18.21.18h3.49ZM73.44,9.4h4l0,0a17.92,17.92,0,0,0-.3-2.43c0-.13-.07-.18-.22-.18H73.44Zm0,4H77l.13-.12c0-.3.12-.6.16-.91.07-.53.12-1.07.18-1.62h-4Zm-1.37,5.26V14.76H68.81a9.35,9.35,0,0,0,.78,1.7,5.31,5.31,0,0,0,1.59,1.78A3,3,0,0,0,72.07,18.65Zm0-17.14-.21.06a3.72,3.72,0,0,0-1.38.92,7.55,7.55,0,0,0-1.4,2.17c-.11.24-.19.48-.29.75h3.11c.14,0,.18,0,.18-.18,0-1.19,0-2.37,0-3.56ZM76.71,5.4c-.11-.28-.2-.54-.31-.79a8.82,8.82,0,0,0-1-1.65A4.35,4.35,0,0,0,74,1.7c-.16-.08-.34-.13-.52-.2V5.28c0,.13.06.14.16.14h3.12ZM73.44,18.66l.31-.11a4,4,0,0,0,1.59-1.25,7.84,7.84,0,0,0,1.25-2.22c0-.1.07-.21.11-.32H73.44Zm8-9.26c0-.19,0-.37-.06-.54a8.94,8.94,0,0,0-.52-2,.18.18,0,0,0-.2-.14H78.49l.33,2.64ZM67,6.76H64.78l-.12.1c-.16.49-.32,1-.44,1.48a9,9,0,0,0-.17,1.06h2.64Zm0,6.65c-.11-.9-.22-1.78-.32-2.65H64.06c0,.19,0,.37.06.55a9.06,9.06,0,0,0,.51,1.92c.05.13.1.18.24.18H67Zm14.44-2.65H78.82l-.33,2.64h2.25l.11-.1c.16-.5.32-1,.45-1.49C81.38,11.47,81.41,11.12,81.46,10.76ZM68.9,17.84l0,0c-.07-.11-.15-.21-.21-.31a11.17,11.17,0,0,1-1.26-2.63.16.16,0,0,0-.19-.14h-1.7l-.16,0A8.71,8.71,0,0,0,68.9,17.84ZM65.42,5.4h1.89c.1,0,.12,0,.15-.13a10.91,10.91,0,0,1,1.21-2.56c.08-.14.17-.26.26-.39A8.26,8.26,0,0,0,65.42,5.4Zm14.67,9.36-.08,0h-1.8c-.1,0-.12,0-.15.13a12.1,12.1,0,0,1-1,2.23c-.15.24-.31.48-.46.73A8.31,8.31,0,0,0,80.09,14.76Zm0-9.36a8.6,8.6,0,0,0-3.5-3.08l.09.18.11.15a11.13,11.13,0,0,1,1.25,2.63.18.18,0,0,0,.2.14H80.1Z"/><path class="cls-4" d="M18.25,6.21l-.46,1.3-1,2.7c-.18.5-.3.56-.83.61-1.3.14-2.6.29-3.9.46a16.47,16.47,0,0,0-4.72,1.35L6.6,13h9c.21,0,.33.09.34.3a.3.3,0,0,1-.33.34c-.4,0-.79,0-1.19,0l-3.81.11c-1.44,0-2.87.11-4.31.15a.66.66,0,0,1-.62-1.08,2.63,2.63,0,0,1,.71-.7,12.41,12.41,0,0,1,1.39-.75c.16-.08.23-.15.18-.33A13.69,13.69,0,0,0,6.92,8.36,10.2,10.2,0,0,0,5.5,6.28l-.14-.14a5.93,5.93,0,0,0-1.78-.69.59.59,0,0,1-.5-.68.6.6,0,0,1,.59-.58A3.49,3.49,0,0,1,5.81,5l.11.15A2.76,2.76,0,0,0,6.48,6a.64.64,0,0,0,.59.27h6.17c1.09,0,2.18,0,3.27,0,.51,0,1,0,1.54,0ZM10.17,9.35l-.56,0a.23.23,0,0,0-.25.21c-.08.39-.17.78-.25,1.17l0,.19a6,6,0,0,0,.64-.17l.11-.14C10,10.23,10.07,9.82,10.17,9.35Zm.17,1.26c.58.06.76,0,.87-.55l0-.19c.13-.56.1-.6-.48-.52l-.17.11C10.51,9.84,10.42,10.22,10.34,10.61Zm2.3-1.26h-.71l-.11.08c-.09.32-.17.65-.27,1l.72-.11.12-.1C12.48,10,12.55,9.68,12.64,9.35Zm1.23,0h-.68l-.12.11c-.07.27-.14.55-.21.86l.69-.08.12-.1C13.74,9.85,13.8,9.6,13.87,9.31ZM13,8l-.73.05-.1.09c-.07.23-.12.46-.19.72h.69l.15-.11C12.83,8.54,12.88,8.31,13,8Zm.66.87c.2,0,.38,0,.46-.28.17-.67.2-.6-.52-.58l-.17.13a2.61,2.61,0,0,0-.14.55l.13.17A.61.61,0,0,0,13.61,8.89Zm-5.39,0h.69l.15-.09c.06-.24.11-.49.16-.72H8.55l-.18.14C8.31,8.46,8.27,8.68,8.22,8.94Zm8.52-1h-.68l-.12.07c-.08.25-.15.5-.24.79a6.29,6.29,0,0,0,.63,0l.18-.12C16.6,8.48,16.66,8.24,16.74,8Zm-6.29.1H9.82l-.15.13c-.07.22-.11.45-.17.72.24,0,.44,0,.65,0l.15-.13C10.36,8.58,10.4,8.35,10.45,8.08Zm4,.76h.69l.13-.12a3.08,3.08,0,0,0,.16-.54L15.3,8c-.56-.09-.63,0-.77.52C14.51,8.63,14.48,8.72,14.45,8.84ZM11.1,9c.13-.07.32-.11.4-.22a1.66,1.66,0,0,0,.13-.51c0-.12,0-.18-.14-.2-.52-.05-.57,0-.69.47V8.6C10.71,8.93,10.71,8.94,11.1,9Zm3,1.17c.25,0,.46,0,.67-.06l.11-.08c.08-.23.14-.46.22-.72-.25,0-.44,0-.64,0l-.16.12C14.23,9.65,14.18,9.89,14.11,10.16ZM9.46,6.94H9c-.4,0-.4,0-.49.38s0,.35.29.35a1.69,1.69,0,0,0,.32,0l.19-.12A5.76,5.76,0,0,0,9.46,6.94Zm1.25,0H10l-.11.11c-.22.49-.15.6.38.59h.12l.17-.14A5.48,5.48,0,0,0,10.71,7Zm5.62,2.33c-.75,0-.95.12-.93.78L16,10l.15-.1C16.19,9.72,16.25,9.52,16.33,9.29Zm-4.1-1.68c.27,0,.47,0,.68,0l.17-.13c.2-.47.15-.53-.35-.53h-.17l-.18.13C12.32,7.24,12.29,7.41,12.23,7.61ZM11,7.62a3.6,3.6,0,0,0,.58,0l.24-.19C12,7,12,6.94,11.47,7h-.19L11.15,7C11.09,7.23,11.06,7.41,11,7.62ZM7.19,7c.13.24.22.43.34.61s.46.15.52,0A4.56,4.56,0,0,0,8.17,7Zm6.33.61c.25,0,.46,0,.66,0l.19-.14c.16-.5.17-.48-.33-.48h-.22l-.19.15A2.31,2.31,0,0,0,13.52,7.57Zm1.28,0c.27,0,.48,0,.69,0l.15-.1c0-.15.07-.3.11-.45l-.39-.07h-.25l-.17.11A4.06,4.06,0,0,0,14.8,7.56Zm1.29,0,.12,0a2.68,2.68,0,0,0,.49,0,.37.37,0,0,0,.24-.18c.18-.42.16-.43-.29-.43H16.4l-.17.11A3.5,3.5,0,0,0,16.09,7.51ZM8.33,9.43l.34,1.15a4.88,4.88,0,0,0,.19-.7C9,9.37,8.91,9.31,8.33,9.43Z"/><path class="cls-4" d="M.43,8.65c.5-.05,1-.11,1.49-.15l3.93-.24H6c.36,0,.38,0,.37.38,0,.18-.09.23-.26.23-1.2,0-2.41,0-3.61,0-.66,0-1.32-.06-2-.09l-.13,0Z"/><path class="cls-4" d="M8.9,15a1.09,1.09,0,0,1-1,1.08A.9.9,0,0,1,7,15.17a1.06,1.06,0,0,1,1-1A.84.84,0,0,1,8.9,15Zm-1,.43a.37.37,0,0,0,.35-.4.3.3,0,0,0-.3-.3c-.17,0-.37.22-.37.39A.34.34,0,0,0,7.94,15.46Z"/><path class="cls-4" d="M13.57,16a.87.87,0,0,1-.87-.91,1.09,1.09,0,0,1,1-1.06.88.88,0,0,1,.87.89A1.06,1.06,0,0,1,13.57,16Zm.14-1.33a.39.39,0,0,0-.4.36.33.33,0,0,0,.29.34A.38.38,0,0,0,14,15,.3.3,0,0,0,13.71,14.69Z"/><path class="cls-4" d="M.7,7.66c.33,0,.66-.1,1-.13l3.7-.25c.1,0,.28,0,.3.08a1,1,0,0,1,0,.43l-.18.08c-1,0-2,0-3,0C2,7.82,1.41,7.77.86,7.74l-.16,0Z"/><path class="cls-4" d="M1.17,6.69c.43-.06.86-.14,1.29-.18.77-.07,1.55-.12,2.32-.18.18,0,.26,0,.24.23s.07.39-.23.38L1.68,6.81l-.51,0Z"/><path class="cls-3" d="M30.51,15.2H28.07l-.64-2H24l-.64,2H21L24.41,5.13h2.72Zm-3.65-3.88L25.74,7.71l-1.13,3.61Z"/><path class="cls-3" d="M39.85,11.55a3.77,3.77,0,0,1-1,2.86,4.2,4.2,0,0,1-3,1,4.19,4.19,0,0,1-3-1,3.76,3.76,0,0,1-1-2.85V5.13h2.38v6.28a2.49,2.49,0,0,0,.4,1.56,1.51,1.51,0,0,0,1.29.52,1.58,1.58,0,0,0,1.3-.5,2.47,2.47,0,0,0,.41-1.58V5.13h2.37Z"/><polygon class="cls-3" points="49.23 7.08 46.37 7.08 46.37 15.2 44.01 15.2 44.01 7.08 41.15 7.08 41.15 5.13 49.23 5.13 49.23 7.08"/><path class="cls-3" d="M59.57,10.17A5.53,5.53,0,0,1,58.31,14a4.94,4.94,0,0,1-6.93,0,5.53,5.53,0,0,1-1.26-3.82,5.55,5.55,0,0,1,1.26-3.84,5,5,0,0,1,6.93,0A5.55,5.55,0,0,1,59.57,10.17Zm-3.13,2.55A3.13,3.13,0,0,0,57,11.63a5.85,5.85,0,0,0,.16-1.47,5.31,5.31,0,0,0-.19-1.54,2.83,2.83,0,0,0-.5-1A1.9,1.9,0,0,0,55.7,7a2.09,2.09,0,0,0-.85-.18A2.22,2.22,0,0,0,54,7a2.09,2.09,0,0,0-.73.59,3.05,3.05,0,0,0-.5,1,5.57,5.57,0,0,0-.19,1.55,5.63,5.63,0,0,0,.18,1.53,3.19,3.19,0,0,0,.5,1,2,2,0,0,0,.72.59,2.16,2.16,0,0,0,.87.19,2.2,2.2,0,0,0,.87-.19A2,2,0,0,0,56.44,12.72Z"/><polygon class="cls-3" points="94.51 15.2 92.1 15.2 87.98 8.29 87.98 15.2 85.69 15.2 85.69 5.13 88.68 5.13 92.21 10.9 92.21 5.13 94.51 5.13 94.51 15.2"/><polygon class="cls-3" points="103.98 15.2 96.98 15.2 96.98 5.13 99.48 5.13 99.48 13.25 103.98 13.25 103.98 15.2"/><polygon class="cls-3" points="110.72 15.2 105.05 15.2 105.05 13.41 106.64 13.41 106.64 6.91 105.05 6.91 105.05 5.13 110.72 5.13 110.72 6.91 109.14 6.91 109.14 13.41 110.72 13.41 110.72 15.2"/><polygon class="cls-3" points="121.58 15.2 119.17 15.2 115.06 8.29 115.06 15.2 112.76 15.2 112.76 5.13 115.75 5.13 119.29 10.9 119.29 5.13 121.58 5.13 121.58 15.2"/><polygon class="cls-3" points="131.07 15.2 124.06 15.2 124.06 5.13 131.07 5.13 131.07 7.08 126.55 7.08 126.55 8.81 130.75 8.81 130.75 10.76 126.55 10.76 126.55 13.25 131.07 13.25 131.07 15.2"/><path class="cls-3" d="M72.74,20.07V20a10,10,0,0,1-7-2.89,9.83,9.83,0,0,1,0-14,10,10,0,0,1,14.1,0,9.83,9.83,0,0,1,0,14A10,10,0,0,1,72.74,20v.2a10.15,10.15,0,0,0,7.19-3A10,10,0,0,0,79.93,3,10.24,10.24,0,0,0,65.55,3a10,10,0,0,0,0,14.27,10.15,10.15,0,0,0,7.19,3Z"/></g></g></svg>